<?xml version="1.0" encoding="iso-8859-1"?>
<!-- Uploaded to: SVG Repo, www.svgrepo.com, Generator: SVG Repo Mixer Tools -->
<svg fill="#FFFFFF" height="800px" width="800px" version="1.1" id="Layer_1" xmlns="http://www.w3.org/2000/svg" xmlns:xlink="http://www.w3.org/1999/xlink"
	 viewBox="0 0 512 512" xml:space="preserve">
<g>
	<g>
		<g>
			<path d="M452.416,138.667H341.329V96c0-11.782-9.551-21.333-21.333-21.333h-85.333c-11.782,0-21.333,9.551-21.333,21.333v42.667
				h-42.667V96c0-11.782-9.551-21.333-21.333-21.333H63.996c-11.782,0-21.333,9.551-21.333,21.333v45.12
				C18.003,148.416,0,171.229,0,198.251v179.499c0,32.902,26.682,59.584,59.584,59.584h392.832
				c32.902,0,59.584-26.682,59.584-59.584V198.251C512,165.349,485.318,138.667,452.416,138.667z M255.996,117.333h42.667v21.333
				h-42.667V117.333z M85.329,117.333h42.667v21.333H85.329V117.333z M469.333,377.749c0,9.338-7.579,16.917-16.917,16.917H59.584
				c-9.338,0-16.917-7.579-16.917-16.917V198.251c0-9.338,7.579-16.917,16.917-16.917h4.412h85.333h85.333h85.333h132.42
				c9.338,0,16.917,7.579,16.917,16.917V377.749z"/>
			<path d="M117.329,245.333c-29.446,0-53.333,23.887-53.333,53.333c0,29.446,23.887,53.333,53.333,53.333
				c29.446,0,53.333-23.887,53.333-53.333C170.662,269.221,146.775,245.333,117.329,245.333z M117.329,309.333
				c-5.882,0-10.667-4.785-10.667-10.667c0-5.882,4.785-10.667,10.667-10.667c5.882,0,10.667,4.785,10.667,10.667
				C127.996,304.549,123.211,309.333,117.329,309.333z"/>
			<path d="M394.662,245.333c-29.446,0-53.333,23.887-53.333,53.333c0,29.446,23.887,53.333,53.333,53.333
				s53.333-23.887,53.333-53.333C447.996,269.221,424.109,245.333,394.662,245.333z M394.662,309.333
				c-5.882,0-10.667-4.785-10.667-10.667c0-5.882,4.785-10.667,10.667-10.667s10.667,4.785,10.667,10.667
				C405.329,304.549,400.544,309.333,394.662,309.333z"/>
			<path d="M277.329,266.667h-42.667c-11.782,0-21.333,9.551-21.333,21.333c0,11.782,9.551,21.333,21.333,21.333h42.667
				c11.782,0,21.333-9.551,21.333-21.333C298.662,276.218,289.111,266.667,277.329,266.667z"/>
		</g>
	</g>
</g>
</svg>
