<svg height="141" viewBox="0 0 141 141" width="141" xmlns="http://www.w3.org/2000/svg"><g fill="#cdcdcd" fill-rule="evenodd" transform="matrix(1 0 0 -1 11 140)"><path d="m55.5205464 3.20674645-55.5205464 43.60056565h20.9703555l32.7356615-18.5579863v37.4490423h12.4619207v-37.4490423l32.7379503 18.5579863h20.094112l-55.3180253-43.59363434c-2.3928212-1.88567412-5.7654077-1.88853838-8.1614283-.00693131z"/><path d="m20.4308027 81.1789745v-29.1977236h-20.4308027v58.3954471l59.6039869-29.1977235.6186671-20.425228z"/><path d="m79.8268158 81.1789745v-29.1977236h-20.4308027v58.3954471l59.6039869-29.1977235-.618667-20.425228z" transform="matrix(-1 0 0 1 178.396014 0)"/><path d="m22.0755517 105.303342-20.26495068 9.472598 55.30050318 23.17917c1.5975294.669603 3.3942666.684329 5.0025563.040999l56.1050985-22.442524-20.4028278-10.250243-38.2119443 14.526183z"/></g></svg>
