<?xml version="1.0" encoding="UTF-8"?>
<svg width="132px" height="132px" viewBox="0 0 132 132" version="1.1" xmlns="http://www.w3.org/2000/svg" xmlns:xlink="http://www.w3.org/1999/xlink">
    <title>画板</title>
    <g id="画板" stroke="none" stroke-width="1" fill="none" fill-rule="evenodd">
        <g id="undraw_preferences_popup_re_4qk0" transform="translate(10.000000, 13.000000)" fill-rule="nonzero">
            <g id="编组-7" transform="translate(0.000000, 61.693386)">
                <path d="M29.2331169,27.673097 L2.3384448,15.2468826 C0.323408701,14.3131155 -0.558017112,11.9190319 0.368127103,9.89520681 L3.83295158,2.34619749 C4.76364704,0.324489527 7.14977789,-0.559856783 9.16690083,0.369332581 L36.0615729,12.7955605 C38.0765852,13.7293486 38.9580026,16.1234083 38.0318906,18.147234 L34.5670684,25.6962321 C33.6363947,27.717965 31.2502392,28.6023201 29.2331169,27.673097 Z" id="路径" fill="#3B3B40"></path>
                <path d="M25.0455616,22.8737536 L8.69546851,15.3194788 C7.54914972,14.7882747 7.04772197,13.4263224 7.57458899,12.2750034 L10.3200728,6.2932801 C10.8495267,5.14316204 12.2069587,4.64007164 13.3544651,5.16867598 L29.7045582,12.722953 C30.8508672,13.2541663 31.3522914,14.6161089 30.8254377,15.7674284 L28.0799539,21.7491495 C27.5505109,22.8992794 26.1930674,23.402374 25.0455616,22.8737536 Z" id="路径" fill="#58585E"></path>
                <path d="M24.9516139,23.0785363 L8.60151409,15.524257 C7.34256612,14.9408843 6.79187253,13.4451201 7.37052047,12.1806985 L10.1159503,6.19908335 C10.6973908,4.93595188 12.1882019,4.38342912 13.4484352,4.96400149 L29.7985351,12.5182808 C31.0574588,13.1016528 31.6081132,14.5974122 31.0294276,15.8617919 L28.2839888,21.8434161 C27.7026016,23.1065411 26.2118267,23.6590859 24.9516139,23.0785363 Z M13.2604927,5.37346995 C12.2256694,4.89677547 11.0015362,5.35046367 10.5240739,6.38764139 L7.77864403,12.3692746 C7.30352669,13.4075358 7.75571158,14.6357374 8.78945438,15.1147863 L25.1395542,22.6690656 C26.1743641,23.1456985 27.3984381,22.6919961 27.8758764,21.654849 L30.621304,15.6732249 C31.0964122,14.6350025 30.6442779,13.4068384 29.6105925,12.9277583 L13.2604927,5.37346995 Z" id="形状" fill="#6C6C6C"></path>
                <path d="M20.3187654,13.7691545 L20.2284347,13.7274185 C20.0990322,13.6679677 20.0111449,13.5436842 19.9979617,13.4015015 C19.9847785,13.2593188 20.0483083,13.1209025 20.1645602,13.0385229 C20.2808121,12.9561433 20.4320719,12.9423534 20.561219,13.0023605 L20.6515497,13.0440965 C20.8506065,13.1365867 20.9374685,13.3732968 20.8457118,13.573213 C20.753955,13.7731291 20.5182157,13.8607872 20.3187654,13.7691545 L20.3187654,13.7691545 Z" id="路径" fill="#A3A3A8"></path>
                <path d="M24.1912034,17.9750877 L19.2229442,15.6795903 C19.0935418,15.6201395 19.0056544,15.495856 18.9924712,15.3536733 C18.979288,15.2114906 19.0428179,15.0730742 19.1590698,14.9906947 C19.2753217,14.9083151 19.4265815,14.8945251 19.5557286,14.9545323 L24.5239878,17.2500297 C24.6533902,17.3094806 24.7412776,17.4337641 24.7544608,17.5759468 C24.767644,17.7181294 24.7041142,17.8565458 24.5878622,17.9389254 C24.4716103,18.021305 24.3203505,18.0350949 24.1912034,17.9750877 L24.1912034,17.9750877 Z" id="路径" fill="#A3A3A8"></path>
                <ellipse id="椭圆形" fill="#229076" cx="15.646123" cy="12.3792014" rx="2.66713638" ry="2.67599906"></ellipse>
            </g>
            <path d="M105.078927,73.3331898 L28.9471173,73.3331898 C25.1264953,73.3288859 22.0303384,70.2238175 22.0260431,66.3921948 L22.0260431,6.94100359 C22.0303864,3.10939952 25.1265138,0.00435676656 28.9471173,0 L105.078927,0 C108.89953,0.00435676656 111.995657,3.10939875 112,6.94100187 L112,66.3921948 C111.995705,70.2238168 108.899549,73.328885 105.078927,73.3331898 Z" id="路径" fill="#3B3B40"></path>
            <path d="M88.6680569,61.4742026 L45.3579862,61.4742026 C43.1844991,61.4717541 41.4231485,59.7053322 41.420707,57.525587 L41.420707,15.8076045 C41.4231777,13.6278715 43.1845112,11.8614667 45.3579862,11.8589889 L88.6680569,11.8589889 C90.8415319,11.8614667 92.6028653,13.6278715 92.6053361,15.8076045 L92.6053361,57.525587 C92.6028945,59.7053322 90.841544,61.4717541 88.6680569,61.4742026 L88.6680569,61.4742026 Z" id="路径" fill="#58585E"></path>
            <path d="M88.6680569,61.4742026 L45.3579862,61.4742026 C43.1844991,61.4717541 41.4231485,59.7053322 41.420707,57.525587 L41.420707,15.8076045 C41.4231777,13.6278715 43.1845112,11.8614667 45.3579862,11.8589889 L88.6680569,11.8589889 C90.8415319,11.8614667 92.6028653,13.6278715 92.6053361,15.8076045 L92.6053361,57.525587 C92.6028945,59.7053322 90.841544,61.4717541 88.6680569,61.4742026 L88.6680569,61.4742026 Z M45.3579862,12.2023468 C43.3734964,12.2045787 41.7653046,13.8174009 41.7630791,15.8076045 L41.7630791,57.525587 C41.7653338,59.5157785 43.3735085,61.1285836 45.3579862,61.1308448 L88.6680569,61.1308448 C90.6525346,61.1285836 92.2607093,59.5157785 92.262964,57.525587 L92.262964,15.8076045 C92.2607385,13.8174009 90.6525467,12.2045787 88.6680569,12.2023468 L45.3579862,12.2023468 Z" id="形状" fill="#6C6C6C"></path>
            <path d="M66.4502063,27.0588903 L59.1753744,27.0588903 C58.9269163,27.0592806 58.6971644,26.9265727 58.5728227,26.7108471 C58.4484809,26.4951215 58.4484809,26.2292236 58.5728227,26.013498 C58.6971644,25.7977724 58.9269163,25.6650645 59.1753744,25.6654548 L66.450208,25.6654548 C66.8334636,25.666059 67.143835,25.977813 67.143835,26.3621726 C67.143835,26.7465321 66.8334636,27.0582861 66.450208,27.0588903 L66.4502063,27.0588903 Z" id="路径" fill="#A3A3A8"></path>
            <path d="M82.7128811,54.6991997 L75.4380491,54.6991997 C75.189591,54.69959 74.9598392,54.5668821 74.8354974,54.3511565 C74.7111557,54.1354309 74.7111557,53.869533 74.8354974,53.6538074 C74.9598392,53.4380818 75.189591,53.3053739 75.4380491,53.3057642 L82.7128828,53.3057642 C83.0961384,53.3063684 83.4065098,53.6181224 83.4065098,54.0024819 C83.4065098,54.3868415 83.0961384,54.6985955 82.7128828,54.6991997 L82.7128811,54.6991997 Z" id="路径" fill="#A3A3A8"></path>
            <path d="M82.7579749,29.9084783 L59.1753744,29.9084783 C58.7916934,29.9084783 58.4806586,29.5965479 58.4806586,29.2117623 C58.4806586,28.8269766 58.7916934,28.5150462 59.1753744,28.5150462 L82.7579749,28.5150462 C83.1416559,28.5150462 83.4526907,28.8269766 83.4526907,29.2117623 C83.4526907,29.5965479 83.1416559,29.9084783 82.7579749,29.9084783 Z" id="路径" fill="#2F2F32"></path>
            <ellipse id="椭圆形" fill="#229076" cx="53.1842512" cy="27.6044851" rx="2.09729445" ry="2.10333312"></ellipse>
            <ellipse id="椭圆形" fill="#A3A3A8" cx="46.1656231" cy="16.9603908" rx="2.09729445" ry="2.10333312"></ellipse>
            <path d="M52.898136,28.6991822 C52.8247069,28.6991822 52.7555657,28.6645008 52.7115226,28.6055777 L52.1393538,27.8404716 C52.0891059,27.7736142 52.0783099,27.6849257 52.1110439,27.6079087 C52.143778,27.5308916 52.2150524,27.4772862 52.2979428,27.4673421 C52.3808332,27.457398 52.4627041,27.4926311 52.5126284,27.5597319 L52.8869558,28.0602447 L53.8483863,26.6139629 C53.9196108,26.5065469 54.0640876,26.4772083 54.1713686,26.5483755 C54.2786497,26.6195428 54.3082565,26.7643635 54.2375555,26.8721268 L54.2366226,26.8735294 L53.0922781,28.5949919 C53.0502701,28.6581642 52.9803195,28.6969788 52.9046359,28.6991118 L52.898136,28.6991822 Z" id="路径" fill="#FFFFFF"></path>
            <path d="M82.7579749,37.4623517 L59.1753744,37.4623517 C58.7916934,37.4623517 58.4806586,37.1504213 58.4806586,36.7656356 C58.4806586,36.38085 58.7916934,36.0689196 59.1753744,36.0689196 L82.7579749,36.0689196 C83.1416559,36.0689196 83.4526907,36.38085 83.4526907,36.7656356 C83.4526907,37.1504213 83.1416559,37.4623517 82.7579749,37.4623517 Z" id="路径" fill="#2F2F32"></path>
            <path d="M53.1842632,38.9784725 C51.9314235,38.9784725 50.9157964,37.959921 50.9157964,36.7034741 C50.9157964,35.4470272 51.9314235,34.4284758 53.1842632,34.4284758 C54.4371028,34.4284758 55.45273,35.4470272 55.45273,36.7034741 C55.4512857,37.9593206 54.4365041,38.977024 53.1842632,38.9784725 Z M53.1842632,34.7718354 C52.4052304,34.7718354 51.7029063,35.2424647 51.4047835,35.9642694 C51.1066608,36.6860742 51.2714496,37.5169073 51.8223091,38.0693525 C52.3731687,38.6217977 53.2016167,38.7870602 53.9213489,38.4880784 C54.6410811,38.1890966 55.1103579,37.4847499 55.1103579,36.7034741 C55.1091588,35.6371573 54.2475186,34.773037 53.1842632,34.7718354 L53.1842632,34.7718354 Z" id="形状" fill="#A3A3A8"></path>
            <path d="M66.4502063,45.256858 L59.1753744,45.256858 C58.9269163,45.2572483 58.6971644,45.1245404 58.5728227,44.9088148 C58.4484809,44.6930892 58.4484809,44.4271913 58.5728227,44.2114657 C58.6971644,43.9957401 58.9269163,43.8630322 59.1753744,43.8634224 L66.450208,43.8634224 C66.8334636,43.8640267 67.143835,44.1757807 67.143835,44.5601402 C67.143835,44.9444998 66.8334636,45.2562538 66.450208,45.256858 L66.4502063,45.256858 Z" id="路径" fill="#A3A3A8"></path>
            <path d="M82.7579749,48.106446 L59.1753744,48.106446 C58.9271763,48.106446 58.6978318,47.9736527 58.5737328,47.758088 C58.4496337,47.5425233 58.4496337,47.2769366 58.5737328,47.0613719 C58.6978318,46.8458072 58.9271763,46.7130139 59.1753744,46.7130139 L82.7579749,46.7130139 C83.1416558,46.7130139 83.4526906,47.0249443 83.4526906,47.4097299 C83.4526906,47.7945156 83.1416558,48.106446 82.7579749,48.106446 Z" id="路径" fill="#2F2F32"></path>
            <path d="M53.1842632,48.0775404 C52.266709,48.0775404 51.4394828,47.5232928 51.0883246,46.6731531 C50.7371664,45.8230134 50.9312322,44.844442 51.5800279,44.1937522 C52.2288237,43.5430623 53.2045779,43.3483987 54.0522909,43.7005339 C54.9000039,44.0526692 55.45273,44.8822551 55.45273,45.8024511 C55.4513555,47.0583413 54.4365477,48.0761117 53.1842632,48.0775404 L53.1842632,48.0775404 Z M53.1842632,43.8707351 C52.4051856,43.8707351 51.7028007,44.3413262 51.4046352,45.0631619 C51.1064697,45.7849975 51.2712435,46.6158846 51.8221216,47.1683748 C52.3729996,47.720865 53.2014934,47.8861524 53.9212707,47.5871624 C54.641048,47.2881724 55.1103579,46.5837873 55.1103579,45.8024665 C55.1091702,44.73613 54.2475382,43.8719764 53.1842632,43.8707351 Z" id="形状" fill="#A3A3A8"></path>
            <path d="M47.118912,16.7908596 L45.5765257,16.7908596 L46.1616739,16.1910134 C46.2175453,16.1337291 46.2165332,16.0418679 46.1594134,15.9858356 C46.1022935,15.9298033 46.010696,15.9308183 45.9548246,15.9881026 L45.1292611,16.8343922 C45.0742286,16.8907704 45.0742286,16.9809249 45.1292611,17.037303 L45.9548246,17.883663 C46.010696,17.9409473 46.1022935,17.9419623 46.1594134,17.88593 C46.2165332,17.8298978 46.2175453,17.7380365 46.1616739,17.6807522 L45.5767209,17.081052 L47.118912,17.081052 C47.1986235,17.080777 47.2630974,17.0158947 47.2630974,16.9359532 C47.2630974,16.8560117 47.1986235,16.7911294 47.118912,16.7908545 L47.118912,16.7908596 Z" id="路径" fill="#3F3D56"></path>
        </g>
    </g>
</svg>
