<?xml version="1.0" encoding="UTF-8"?>
<svg width="132px" height="132px" viewBox="0 0 132 132" version="1.1" xmlns="http://www.w3.org/2000/svg" xmlns:xlink="http://www.w3.org/1999/xlink">
    <title>画板</title>
    <g id="画板" stroke="none" stroke-width="1" fill="none" fill-rule="evenodd">
        <g id="编组-9" transform="translate(17.000000, 18.000000)" fill-rule="nonzero">
            <g id="undraw_clean_up_re_504g备份">
                <g id="编组" transform="translate(0.000000, 6.037614)">
                    <path d="M72.1396146,0 L4.49897371,0 C2.01768351,0 0,2.02266302 0,4.51009439 L0,74.4522778 C0,76.9397091 2.01768351,78.9623864 4.49897371,78.9623864 L72.1396146,78.9623864 C74.6209048,78.9623864 76.6385883,76.9397091 76.6385883,74.4522778 L76.6385883,4.51009439 C76.6385883,2.02266302 74.6209048,0 72.1396146,0 Z M76.1655106,74.4522778 C76.1655106,76.6788772 74.3607192,78.4881378 72.1396146,78.4881378 L4.49897371,78.4881378 C2.27787152,78.4881378 0.473077706,76.6788795 0.473077706,74.4522778 L0.473077706,4.51009439 C0.473077706,2.28350922 2.27786915,0.474248567 4.49897371,0.474248567 L72.1396146,0.474248567 C74.3607168,0.474248567 76.1655106,2.28350685 76.1655106,4.51009439 L76.1655106,74.4522778 Z" id="形状" fill="#3F3D56"></path>
                    <path d="M76.1655106,74.4522778 C76.1655106,76.6788772 74.3607192,78.4881378 72.1396146,78.4881378 L4.49897371,78.4881378 C2.27787152,78.4881378 0.473077706,76.6788795 0.473077706,74.4522778 L0.473077706,4.51009439 C0.473077706,2.28350922 2.27786915,0.474248567 4.49897371,0.474248567 L72.1396146,0.474248567 C74.3607168,0.474248567 76.1655106,2.28350685 76.1655106,4.51009439 L76.1655106,74.4522778 Z" id="路径" fill="#3B3B40"></path>
                    <path d="M72.1396146,1.82480656e-13 L4.49897371,1.82480656e-13 C2.01768351,1.82480656e-13 0,2.02266302 0,4.51009439 L0,74.4522778 C0,76.9397091 2.01768351,78.9623864 4.49897371,78.9623864 L72.1396146,78.9623864 C74.6209048,78.9623864 76.6385883,76.9397091 76.6385883,74.4522778 L76.6385883,4.51009439 C76.6385883,2.02266302 74.6209048,1.82480656e-13 72.1396146,1.82480656e-13 Z M76.1655106,74.4522778 C76.1655106,76.6788772 74.3607192,78.4881378 72.1396146,78.4881378 L4.49897371,78.4881378 C2.27787152,78.4881378 0.473077706,76.6788795 0.473077706,74.4522778 L0.473077706,4.51009439 C0.473077706,2.28350922 2.27786915,0.474248567 4.49897371,0.474248567 L72.1396146,0.474248567 C74.3607168,0.474248567 76.1655106,2.28350685 76.1655106,4.51009439 L76.1655106,74.4522778 Z" id="形状" fill="#6C6C6C"></path>
                    <g transform="translate(23.277781, 4.588348)" fill="#4D4D54" id="路径">
                        <path d="M7.24283387,0 L0.605539463,0 C0.272026777,0 0,0.272697668 0,0.607038166 C0,0.943749906 0.272024412,1.21644995 0.605539463,1.21644995 L7.24283387,1.21644995 C7.57634655,1.21644995 7.84837333,0.943752277 7.84837333,0.607038166 C7.84837333,0.27270004 7.57634892,0 7.24283387,0 Z"></path>
                        <path d="M18.3591352,0 L11.7218408,0 C11.3883281,0 11.1163013,0.272697668 11.1163013,0.607038166 C11.1163013,0.943749906 11.3883258,1.21644995 11.7218408,1.21644995 L18.3591352,1.21644995 C18.6926479,1.21644995 18.9646747,0.943752277 18.9646747,0.607038166 C18.9646747,0.27270004 18.6926503,0 18.3591352,0 Z"></path>
                        <path d="M29.4754366,0 L22.8381422,0 C22.5046295,0 22.2326027,0.272697668 22.2326027,0.607038166 C22.2326027,0.943749906 22.5046271,1.21644995 22.8381422,1.21644995 L29.4754366,1.21644995 C29.8089492,1.21644995 30.080976,0.943752277 30.080976,0.607038166 C30.080976,0.27270004 29.8089516,0 29.4754366,0 Z"></path>
                    </g>
                    <path d="M20.7207988,16.717262 L12.3946406,16.717262 C11.3633194,16.717262 10.525979,17.5566772 10.525979,18.5905343 L10.525979,23.3804472 C10.525979,24.4143067 11.3633218,25.2537338 12.3946406,25.2537338 L20.7207964,25.2537338 C21.7521176,25.2537338 22.5894581,24.4143044 22.5894581,23.3804472 L22.5894581,18.5905343 C22.5894581,17.5566748 21.7521153,16.717262 20.7207964,16.717262 L20.7207988,16.717262 Z" id="路径" fill="#848489"></path>
                    <path d="M20.7207988,29.284849 L12.3946406,29.284849 C11.3633194,29.284849 10.525979,30.1242642 10.525979,31.1581214 L10.525979,35.9480343 C10.525979,36.9818938 11.3633218,37.8213208 12.3946406,37.8213208 L20.7207964,37.8213208 C21.7521176,37.8213208 22.5894581,36.9818914 22.5894581,35.9480343 L22.5894581,31.1581214 C22.5894581,30.1242619 21.7521153,29.284849 20.7207964,29.284849 L20.7207988,29.284849 Z" id="路径" fill="#4D4D54"></path>
                    <path d="M20.7207988,41.852436 L12.3946406,41.852436 C11.3633194,41.852436 10.525979,42.6918512 10.525979,43.7257084 L10.525979,48.5156213 C10.525979,49.5494808 11.3633218,50.3889079 12.3946406,50.3889079 L20.7207964,50.3889079 C21.7521176,50.3889079 22.5894581,49.5494784 22.5894581,48.5156213 L22.5894581,43.7257084 C22.5894581,42.6918489 21.7521153,41.852436 20.7207964,41.852436 L20.7207988,41.852436 Z" id="路径" fill="#2F2F32"></path>
                    <path d="M39.1708293,16.717262 L30.8446735,16.717262 C29.8133523,16.717262 28.9760118,17.5566772 28.9760118,18.5905343 L28.9760118,23.3804472 C28.9760118,24.4143067 29.8133546,25.2537338 30.8446735,25.2537338 L39.1708293,25.2537338 C40.2021505,25.2537338 41.039491,24.4143044 41.039491,23.3804472 L41.039491,18.5905343 C41.039491,17.5566748 40.2021482,16.717262 39.1708293,16.717262 L39.1708293,16.717262 Z" id="路径" fill="#4D4D54"></path>
                    <path d="M39.1708293,29.284849 L30.8446735,29.284849 C29.8133523,29.284849 28.9760118,30.1242642 28.9760118,31.1581214 L28.9760118,35.9480343 C28.9760118,36.9818938 29.8133546,37.8213208 30.8446735,37.8213208 L39.1708293,37.8213208 C40.2021505,37.8213208 41.039491,36.9818914 41.039491,35.9480343 L41.039491,31.1581214 C41.039491,30.1242619 40.2021482,29.284849 39.1708293,29.284849 Z" id="路径" fill="#848489"></path>
                    <path d="M57.6208598,29.284849 L49.294704,29.284849 C48.2633828,29.284849 47.4260424,30.1242642 47.4260424,31.1581214 L47.4260424,35.9480343 C47.4260424,36.9818938 48.2633852,37.8213208 49.294704,37.8213208 L57.6208598,37.8213208 C58.652181,37.8213208 59.4895215,36.9818914 59.4895215,35.9480343 L59.4895215,31.1581214 C59.4895215,30.1242619 58.6521787,29.284849 57.6208598,29.284849 Z" id="路径" fill="#848489"></path>
                    <path d="M63.7022785,65.0906158 L12.9363099,65.0906158 C10.8240203,65.0906158 9.10674583,66.8121405 9.10674583,68.9296579 L9.10674583,72.396415 C9.10674583,74.5139324 10.8240203,76.2354571 12.9363099,76.2354571 L63.7022785,76.2354571 C65.814568,76.2354571 67.5318425,74.5139324 67.5318425,72.396415 L67.5318425,68.9296579 C67.5318425,66.8121405 65.814568,65.0906158 63.7022785,65.0906158 Z" id="路径" fill="#4D4D54"></path>
                </g>
                <rect id="矩形" fill="#313135" x="53.4577807" y="36.1523976" width="11.8269426" height="8.29934992" rx="1.7553722"></rect>
            </g>
            <rect id="矩形备份" fill="#4D4D54" x="71.4237611" y="47.0417939" width="11.8269426" height="8.29934992" rx="1.7553722"></rect>
            <rect id="矩形" fill="#229076" x="80.2128096" y="51.054586" width="11.8269426" height="8.29934992" rx="1.7553722"></rect>
        </g>
    </g>
</svg>