<svg height="132" viewBox="0 0 132 132" width="132" xmlns="http://www.w3.org/2000/svg"><g fill="none"><g transform="translate(1 17)"><path d="m63.5086232 79.4688333-2.1478106-.9009286-1.4733896-10.7260663h-19.6208315l-1.5970437 10.6822449-1.9215562.9571107c-.1892814.0942856-.288649.3058465-.2400228.5110263.0486263.2051797.232484.350122.4441091.350122h26.3795282c.2172041 0 .4043114-.152499.4472935-.3645984.042982-.2120993-.0700773-.4249817-.2702764-.5089106z" fill="#616167"/><path d="m98.3761843 69.2688945h-96.38296516c-1.05292422-.002356-1.90524491-.8533328-1.90524491-1.9022566v-13.539593h100.19345377v13.5395916c0 1.0489197-.8523236 1.8998915-1.9052437 1.902258z" fill="#58585e"/><path d="m100.382178 60.2261818h-100.382178v-57.93304782c.00146899-1.26588775 1.03124752-2.2917151 2.30196646-2.29313398h95.77822134c1.2707231.00141805 2.3005092 1.0272421 2.3019902 2.29313398z" fill="#2f2f32"/><path d="m94.3867507 56.0213954h-88.39131768c-.97964557-.0010691-1.77354507-.7919286-1.77464504-1.7678497v-48.28090374c.00109176-.975942.79497849-1.76683735 1.77464504-1.76795815h88.39131768c.9796662.00112161 1.7735525.79201649 1.774645 1.76795815v48.28090374c-.0011007.9759207-.7949998 1.7667798-1.774645 1.7678497z" fill="#3b3b40"/><path d="m8.973394 22.463859h14.543121v1.360588h-14.543121z" fill="#4d4d54"/><path d="m8.973394 25.763449h14.543121v1.360588h-14.543121z" fill="#4d4d54"/><path d="m8.973394 29.135901h14.543121v1.360588h-14.543121z" fill="#4d4d54"/><path d="m8.973394 32.508353h14.543121v1.360588h-14.543121z" fill="#4d4d54"/><path d="m12.418069 36.793785h7.653773v1.18075h-7.653773z" fill="#a3a3a8"/><path d="m46.007376 30.902463h1v1h-1z" fill="#229076"/><path d="m46.1467568 40.1730378h-.1393807v-.8855136h.1393807zm0-1.7709875h-.1393807v-.8855121h.1393807zm0-1.7710227h-.1393807v-.8854784h.1393807zm0-1.770989h-.1393807v-.8855121h.1393807zm0-1.7709889h-.1393807v-.8855121h.1393807z" fill="#e5e5e5"/><path d="m46.007376 41.05855h1v1h-1z" fill="#e5e5e5"/><path d="m61.234562 30.902463h1v1h-1z" fill="#229076"/><g fill="#e5e5e5"><path d="m61.3739427 40.1730378h-.1393821v-.8855136h.1393821zm0-1.7709875h-.1393821v-.8855121h.1393821zm0-1.7710227h-.1393821v-.8854784h.1393821zm0-1.770989h-.1393821v-.8855121h.1393821zm0-1.7709889h-.1393821v-.8855121h.1393821z"/><path d="m61.234562 41.05855h1v1h-1z"/><path d="m68.91558 22.772277h1v1h-1z"/><path d="m69.0549603 40.2075702h-.1393806v-.850984h.1393806zm0-1.7019593h-.1393806v-.8510133h.1393806zm0-1.701993h-.1393806v-.8509796h.1393806zm0-1.7019592h-.1393806v-.8509796h.1393806zm0-1.7019593h-.1393806v-.8510133h.1393806zm0-1.701993h-.1393806v-.8509796h.1393806zm0-1.7019607h-.1393806v-.8509796h.1393806zm0-1.7019593h-.1393806v-.8509796h.1393806zm0-1.7019929h-.1393806v-.8509797h.1393806zm0-1.7019593h-.1393806v-.8509796h.1393806z"/><path d="m68.91558 41.05855h1v1h-1z"/><path d="m76.520007 19.447502h1v1h-1z"/><path d="m76.6593872 40.2107491h-.1393821v-.8478345h.1393821zm0-1.6956352h-.1393821v-.847833h.1393821zm0-1.6956337h-.1393821v-.8478345h.1393821zm0-1.6956352h-.1393821v-.8478344h.1393821zm0-1.6956352h-.1393821v-.8478344h.1393821zm0-1.6956337h-.1393821v-.8478344h.1393821zm0-1.6956352h-.1393821v-.8478344h.1393821zm0-1.6956351h-.1393821v-.847833h.1393821zm0-1.6956338h-.1393821v-.8478344h.1393821zm0-1.6956351h-.1393821v-.8478345h.1393821zm0-1.6956352h-.1393821v-.8478345h.1393821zm0-1.6956352h-.1393821v-.847833h.1393821z"/><path d="m76.520007 41.05855h1v1h-1z"/><path d="m53.655734 25.335127h1v1h-1z"/><path d="m53.7951148 40.2528901h-.1393806v-.8056583h.1393806zm0-1.6113518h-.1393806v-.8056582h.1393806zm0-1.6113517h-.1393806v-.8056583h.1393806zm0-1.6113517h-.1393806v-.8056583h.1393806zm0-1.6113518h-.1393806v-.8056582h.1393806zm0-1.6113517h-.1393806v-.8056598h.1393806zm0-1.6113518h-.1393806v-.8056641h.1393806zm0-1.6113517h-.1393806v-.8056597h.1393806zm0-1.6113517h-.1393806v-.8056598h.1393806z"/><path d="m53.655734 41.05855h1v1h-1z"/></g><path d="m84.3719402 41.6671161h-46.03761c-.0795695 0-.1440764-.0642616-.1440764-.1435286v-21.9819359c0-.0792687.0645052-.1435286.1440764-.1435286s.1440764.0642599.1440764.1435286v21.8384058h45.8935336c.0795712 0 .1440764.06426.1440764.1435286 0 .0792687-.0645052.1435301-.1440764.1435301z" fill="#a3a3a8"/><path d="m61.3673241 31.0953278-7.6543618-5.7113209-7.5497112 5.6333147-.1727987-.2297667 7.7225099-5.7622009 7.6178592 5.6841946 7.5700232-8.2526835.0304679-.0123167 7.6359633-3.0649725.1077416.2664238-7.6056426 3.0526556z" fill="#a3a3a8"/><ellipse cx="46.076914" cy="30.902446" fill="#a3a3a8" rx="1.612689" ry="1.606557"/><ellipse cx="53.712979" cy="25.304816" fill="#229076" rx="1.612689" ry="1.606557"/><ellipse cx="61.349045" cy="30.902446" fill="#a3a3a8" rx="1.612689" ry="1.606557"/><ellipse cx="68.98511" cy="22.577766" fill="#229076" rx="1" ry="1"/><ellipse cx="76.621176" cy="19.42013" fill="#229076" rx="1" ry="1"/><path d="m27.767518 4.204649h1v51.816726h-1z" fill="#4d4d54"/></g><path d="m68.896341 81.262295h63.103659v24.901639h-63.103659z" fill="#3b3b40"/><path d="m68.896341 91.82066h63.103659v3.831021h-63.103659z" fill="#2f2f32"/><ellipse cx="119.716463" cy="84.853878" fill="#a3a3a8" rx="1.445122" ry="1.436633"/><ellipse cx="124.77439" cy="84.853878" fill="#229076" rx="1.445122" ry="1.436633"/><ellipse cx="129.832317" cy="84.853878" fill="#a3a3a8" rx="1.445122" ry="1.436633"/></g></svg>