<svg height="132" viewBox="0 0 132 132" width="132" xmlns="http://www.w3.org/2000/svg"><g fill="none" transform="translate(17 28)"><path d="m87.7180735 54.861528c4.691609-3.5708487 6.932437-9.5713086 5.5295807-15.2953831-.0348578-.1422271-.0716485-.2841296-.1103722-.4257076-.9300328-3.3977431-3.2309636-6.627003-6.58447-7.7126772-2.8158045-.9115788-5.8893351-.2105878-8.8269033-.5730915-5.7665989-.7116193-10.2373261-5.3740776-13.3830469-10.2557234-3.1457298-4.8816584-5.5633286-10.345969-9.7433158-14.3789273-6.8900361-6.64764893-18.1293992-8.07889291-26.6720498-3.75176997-8.5426416 4.327141-13.9842138 13.92723637-13.7521466 23.49493967.2320798 9.567705 5.9161346 18.7150961 14.1707944 23.5683742 3.0324329 1.7828937 6.5397229 3.0459416 10.0301841 2.6039685 3.0286369-.3834892 5.7805138-2.009655 8.794887-2.4924339 4.7393007-.7590488 9.4484091 1.3821852 13.5475459 3.8773755 4.0991259 2.4951867 8.0586001 5.452736 12.716707 6.609502 4.5230176 1.123216 10.1265817-2.1052347 14.2826055-5.2684459z" fill="#3b3b40"/><path d="m50.5958217 12.132965h-46.73916208c-2.02958624.0023581-3.6743025 1.6458779-3.67666224 3.6739877v23.2451066c.00235875 2.0281103 1.64707558 3.6716306 3.67666224 3.6739877h46.73916208c2.029851-.0017201 3.6749409-1.6456132 3.6766622-3.6739877v-23.2451066c-.0017233-2.0283737-1.646812-3.6722656-3.6766622-3.6739877z" fill="#58585e"/><path d="m50.5959952 42.9071399h-46.73851131c-2.12943031-.002407-3.8550742-1.7267947-3.85748389-3.854676v-23.245802c.00240969-2.1278813 1.72805358-3.852269 3.85748389-3.854676h46.73851131c2.12943.002407 3.8550734 1.726795 3.8574821 3.854676v23.245802c-.0024087 2.127881-1.7280521 3.852269-3.8574821 3.854676zm-46.73851131-30.5938966c-1.9298499.0022098-3.49375112 1.5649725-3.49596351 3.4934186v23.245802c.00221239 1.9284461 1.56611361 3.4912088 3.49596351 3.4934186h46.73851131c1.9298492-.0022108 3.4937493-1.5649732 3.4959617-3.4934186v-23.245802c-.0022124-1.9284454-1.5661125-3.4912078-3.4959617-3.4934186z" fill="#6c6c6c"/><path d="m52.7459587 49.3332911h-44.79031054c-.80620448 0-1.45976234-.6530825-1.45976234-1.4587005s.65355786-1.4587004 1.45976234-1.4587004h44.79031054c.8062045 0 1.4597623.6530824 1.4597623 1.4587004s-.6535578 1.4587005-1.4597623 1.4587005z" fill="#58585e"/><path d="m22.3145181 35.4235052c-.2653397-.0007661-.526166-.0686513-.758166-.1973278-.5057419-.2725675-.8192638-.8021769-.8148294-1.3763509v-12.9731845c0-.5729368.3122788-1.1004096.8147707-1.3763183.5024919-.2759088 1.1154756-.2564598 1.5994393.0507475l12.3153489 6.4865896c.4538918.2881588.7288352.7882127.7288352 1.3255707s-.2749434 1.037412-.7288352 1.3255708l-12.3153489 6.4865877c-.250985.161184-.5428676.2472744-.8412146.2481152z" fill="#2f2f32"/><path d="m94.6373964 28.9555204h-19.5315433c-.8481716-.0009466-1.5355143-.6877893-1.5364616-1.5353439v-9.7141714c.0009463-.847555.6882896-1.5343982 1.5364616-1.5353439h19.5315433c.8481724.0009447 1.5355162.6877885 1.5364616 1.5353439v9.7141714c-.0009464.847555-.6882896 1.5343982-1.5364616 1.5353439z" fill="#58585e"/><path d="m94.6374036 29.1361419h-19.5315451c-.947949-.001076-1.716145-.7687132-1.7172218-1.7159726v-9.7141714c.0010768-.9472595.7692728-1.7148966 1.7172218-1.7159726h19.5315451c.947949.001076 1.716145.7687131 1.7172218 1.7159726v9.7141714c-.0010768.9472594-.7692728 1.7148966-1.7172218 1.7159726zm-19.5315451-12.7848592c-.7483946.0008163-1.3548845.606865-1.3557014 1.3547152v9.7141714c.0008169.7478502.6073068 1.3538989 1.3557014 1.3547152h19.5315451c.7483946-.0008163 1.3548845-.606865 1.3557014-1.3547152v-9.7141714c-.0008169-.7478502-.6073068-1.3538989-1.3557014-1.3547152z" fill="#6c6c6c"/><path d="m91.4286391 33.7089307h-13.1572774c-.8055702-.0008958-1.4581389-.6537158-1.4581389-1.4587004 0-.8049847.6525687-1.4578047 1.4581389-1.4587005h13.1572774c.8062045 0 1.4597624.6530825 1.4597624 1.4587005s-.6535579 1.4587004-1.4597624 1.4587004z" fill="#58585e"/><path d="m82.7713757 26.0200856c-.1108825-.0003201-.2198789-.0286884-.3168292-.0824606-.2113459-.1139018-.342364-.3352212-.3405088-.5751633v-5.4213553c0-.2394242.1304969-.4598499.3404828-.5751495s.4661453-.1071723.6683886.0212064l5.1464559 2.7106786c.1896768.1204184.3045729.3293857.3045729.5539421s-.1148961.4335237-.3045729.5539422l-5.1464559 2.7106785c-.1048839.0673558-.2268582.1033307-.3515334.1036809z" fill="#a3a3a8"/><path d="m82.1649433 70.7450237h-19.5315433c-.8481588-.0009775-1.5354834-.6878021-1.5364616-1.5353439v-9.7141732c.0009474-.8475546.68829-1.5343973 1.5364616-1.5353439h19.5315433c.8481721.0009456 1.5355153.6877889 1.5364617 1.5353439v9.7141732c-.0009772.8475422-.6883024 1.5343674-1.5364617 1.5353439z" fill="#58585e"/><path d="m82.1649506 70.9256668h-19.5315451c-.9479491-.001076-1.716145-.7687131-1.7172218-1.7159725v-9.7141733c.0010768-.9472594.7692727-1.7148965 1.7172218-1.7159726h19.5315451c.947949.0010761 1.7161449.7687132 1.7172218 1.7159726v9.7141733c-.0010769.9472594-.7692728 1.7148965-1.7172218 1.7159725zm-19.5315451-12.784861c-.7483946.0008163-1.3548846.6068651-1.3557015 1.3547152v9.7141733c.0008169.7478501.6073069 1.3538988 1.3557015 1.3547152h19.5315451c.7483946-.0008164 1.3548845-.6068651 1.3557014-1.3547152v-9.7141733c-.0008169-.7478501-.6073068-1.3538989-1.3557014-1.3547152z" fill="#6c6c6c"/><path d="m78.9561861 75.5244517h-13.1572775c-.8055702-.0008957-1.4581388-.6537157-1.4581388-1.4587004s.6525686-1.4578047 1.4581388-1.4587004h13.1572775c.8062045 0 1.4597623.6530824 1.4597623 1.4587004s-.6535578 1.4587004-1.4597623 1.4587004z" fill="#58585e"/><path d="m70.251437 68.1065713c-.1108825-.00032-.2198789-.0286883-.3168293-.0824606-.2113458-.1139017-.342364-.3352212-.3405087-.5751633v-5.4213553c0-.2394243.1304981-.4598496.3404841-.5751491.209986-.1152996.4661455-.1071723.6683891.0212061l5.1464558 2.7106785c.189676.120419.3045714.3293862.3045714.5539422 0 .2245559-.1148954.4335231-.3045714.5539421l-5.1464558 2.7106786c-.1048848.0673553-.2268595.1033302-.3515352.1036808z" fill="#a3a3a8"/><path d="m15.7875185 36.6111087c-.1843868-.0005322-.3656371-.0477061-.5268559-.1371244-.3514436-.1894094-.5693121-.557439-.5662304-.9564367v-9.0151539c0-.3981376.2170046-.7646819.5661896-.9564128.349185-.1917308.7751515-.1782156 1.1114611.0352648l8.5580183 4.5075745c.3154124.2002434.5064724.5477343.5064724.9211479 0 .3734137-.19106.7209045-.5064724.921148l-8.5580183 4.5075757c-.1744109.1120074-.3772416.1718322-.5845644.1724169z" fill="#229076"/><path d="m43.793814 12.132965v4.9058754c0 .2438487-.4265941.4479591-1.0014115.503954-.0048904-.0002921-.0097928.0003202-.0144608.0018063-.0958029.0072252-.1970286.012644-.3000619.012644-.3169137.0058128-.632275-.0455874-.930915-.1517281-.027114-.0108377-.0542281-.0234817-.0813421-.0343194-.0253064-.0144503-.0524204-.0270943-.0777269-.0415446-.1428005-.0848955-.2259502-.1842413-.2259502-.2908122v-4.9058754z" fill="#313135"/><ellipse cx="83.746214" cy="70.252484" fill="#229076" rx="2.236428" ry="2.234801"/><path d="m83.5787736 71.1456383c-.0047666 0-.0095351-.0001554-.0143017-.0003884-.0852394-.0041153-.164428-.0452296-.2167984-.1125605l-.3737452-.4801472c-.047668-.0612064-.0690455-.1388312-.0594278-.2157909.0096177-.0769596.0494424-.1469471.1107095-.1945596l.0134504-.0104566c.0612572-.0476615.1389612-.0690367.2159983-.059418s.1470888.0494424.1947268.1107003c.0382022.0490116.0958927.0789407.1579886.0819624s.1224236-.0211645.1652106-.0662351l.7588494-.8005572c.1112282-.117061.2962847-.122085.4137094-.0112315l.0124417.0118511c.0563542.0533271.0891923.1268462.091286.2043741.0020938.0775278-.0267284.1527097-.0801222.2089965l-1.1776364 1.2421257c-.0552111.0583108-.1320061.0913349-.212339.0913349z" fill="#fff"/><ellipse cx="96.037906" cy="28.707884" fill="#229076" rx="2.236428" ry="2.234801"/><path d="m95.8704665 29.6010386c-.0047667 0-.0095351-.0001553-.0143018-.0003883-.0852394-.0041154-.1644279-.0452297-.2167983-.1125606l-.3737452-.4801472c-.047668-.0612064-.0690456-.1388312-.0594279-.2157908.0096177-.0769597.0494424-.1469472.1107096-.1945597l.0134503-.0104566c.0612572-.0476614.1389612-.0690367.2159984-.059418.0770371.0096187.1470888.0494424.1947267.1107003.0382022.0490117.0958927.0789408.1579886.0819624.062096.0030217.1224236-.0211644.1652106-.066235l.7588494-.8005572c.1112283-.1170611.2962847-.122085.4137095-.0112315l.0124417.011851c.0563541.0533272.0891922.1268462.091286.2043741s-.0267284.1527097-.0801223.2089965l-1.1776363 1.2421257c-.0552112.0583108-.1320061.0913349-.212339.0913349z" fill="#fff"/></g></svg>