<?xml version="1.0" encoding="UTF-8"?>
<svg width="197px" height="180px" viewBox="0 0 197 180" version="1.1" xmlns="http://www.w3.org/2000/svg" xmlns:xlink="http://www.w3.org/1999/xlink">
    <title>编组 12</title>
    <defs>
        <linearGradient x1="95.5292297%" y1="11.8622481%" x2="4.09010833%" y2="88.9554773%" id="linearGradient-1">
            <stop stop-color="#4ED4B5" offset="0%"></stop>
            <stop stop-color="#29AD8E" offset="100%"></stop>
        </linearGradient>
    </defs>
    <g id="页面-1" stroke="none" stroke-width="1" fill="none" fill-rule="evenodd">
        <g id="画板备份-2" transform="translate(-849.000000, -5017.000000)">
            <g id="编组-6备份-6" transform="translate(648.000000, 4836.000000)">
                <g id="编组-19备份-2" transform="translate(144.000000, 181.000000)">
                    <g id="编组-12" transform="translate(57.000000, 0.000000)">
                        <path d="M118.786118,0 L177,0 C188.045695,-2.02906125e-15 197,8.954305 197,20 L197,40 L197,40 L197,74.0042763 C197,74.556561 196.552285,75.0042763 196,75.0042763 L158,75.0042763 C157.447715,75.0042763 157,74.556561 157,74.0042763 L157,46 C157,42.6862915 154.313708,40 151,40 L138.979144,40 C136.311773,40 133.964664,41.7609123 133.218612,44.3218243 L97.8892558,165.593919 C95.4024135,174.130292 87.5787182,180 78.6874832,180 L20,180 C8.954305,180 1.3527075e-15,171.045695 0,160 L0,85.1094374 C-6.41275039e-14,84.5571527 0.44771525,84.1094374 1,84.1094374 L39,84.1094374 C39.5522847,84.1094374 40,84.5571527 40,85.1094374 L40,134 C40,137.313708 42.6862915,140 46,140 L59.0448176,140 C61.7215031,140 64.0744469,138.226994 64.8123305,135.654024 L99.561075,14.4865871 C102.020687,5.91002134 109.863833,-9.8382976e-15 118.786118,0 Z" id="矩形备份-6" fill="url(#linearGradient-1)"></path>
                        <path d="M2.19875466,9.09494702e-13 L68.6785619,9.09494702e-13 C79.7242569,8.97655093e-13 88.6785619,8.954305 88.6785619,20 C88.6785619,21.8672979 88.417058,23.7253956 87.901669,25.520159 L71.637989,82.1559296 L71.637989,82.1559296 L1.44504951,1.65721271 C1.08208096,1.24095285 1.12528209,0.609263409 1.54154195,0.246294851 C1.72366164,0.087490874 1.95712212,9.07096598e-13 2.19875466,9.09494702e-13 Z" id="矩形备份-7" fill="#229076"></path>
                        <path d="M158,83.0294948 L196,83.0294948 C196.552285,83.0294948 197,83.47721 197,84.0294948 L197,179 C197,179.552285 196.552285,180 196,180 L166.062391,180 C160.302649,180 154.822517,177.516845 151.025038,173.186281 L115.467751,132.637509 L115.467751,132.637509 L128.682147,86.8152518 L157,119.387569 L157,84.0294948 C157,83.47721 157.447715,83.0294948 158,83.0294948 Z" id="矩形备份-8" fill="#229076"></path>
                    </g>
                </g>
            </g>
        </g>
    </g>
</svg>
